<svg width="57" height="34" viewBox="0 0 57 34" fill="none" xmlns="http://www.w3.org/2000/svg">
<path d="M1.896 34C1.576 34 1.304 33.888 1.08 33.664C0.856 33.44 0.744 33.168 0.744 32.848V1.6C0.744 1.248 0.856 0.959998 1.08 0.735999C1.304 0.511998 1.576 0.399998 1.896 0.399998H22.728C23.08 0.399998 23.368 0.511998 23.592 0.735999C23.816 0.959998 23.928 1.248 23.928 1.6V4.96C23.928 5.312 23.816 5.6 23.592 5.824C23.368 6.016 23.08 6.112 22.728 6.112H7.32V15.232H21.768C22.12 15.232 22.408 15.344 22.632 15.568C22.856 15.792 22.968 16.08 22.968 16.432V19.792C22.968 20.112 22.856 20.384 22.632 20.608C22.408 20.832 22.12 20.944 21.768 20.944H7.32V32.848C7.32 33.168 7.208 33.44 6.984 33.664C6.76 33.888 6.472 34 6.12 34H1.896Z" fill="black"/>
<path d="M30.7241 34C30.4041 34 30.1321 33.888 29.9081 33.664C29.6841 33.44 29.5721 33.168 29.5721 32.848V1.6C29.5721 1.248 29.6841 0.959998 29.9081 0.735999C30.1321 0.511998 30.4041 0.399998 30.7241 0.399998H44.6441C47.2361 0.399998 49.3481 0.799998 50.9801 1.6C52.6121 2.368 53.8121 3.44 54.5801 4.816C55.3801 6.192 55.7801 7.792 55.7801 9.616C55.7801 10.832 55.5561 11.904 55.1081 12.832C54.6921 13.728 54.1641 14.464 53.5241 15.04C52.9161 15.616 52.3081 16.064 51.7001 16.384C52.9481 16.96 54.0521 17.92 55.0121 19.264C55.9721 20.608 56.4521 22.208 56.4521 24.064C56.4521 25.984 56.0201 27.696 55.1561 29.2C54.2921 30.704 53.0121 31.888 51.3161 32.752C49.6201 33.584 47.5241 34 45.0281 34H30.7241ZM36.2441 28.912H44.2601C45.9881 28.912 47.3001 28.448 48.1961 27.52C49.0921 26.56 49.5401 25.408 49.5401 24.064C49.5401 22.656 49.0761 21.488 48.1481 20.56C47.2521 19.632 45.9561 19.168 44.2601 19.168H36.2441V28.912ZM36.2441 14.176H43.7801C45.4761 14.176 46.7401 13.776 47.5721 12.976C48.4361 12.144 48.8681 11.072 48.8681 9.76C48.8681 8.416 48.4361 7.376 47.5721 6.64C46.7401 5.872 45.4761 5.488 43.7801 5.488H36.2441V14.176Z" fill="#5092DF"/>
</svg>
